<svg version="1.0" xmlns="http://www.w3.org/2000/svg"
 width="300pt" height="390pt" viewBox="0 0 200 200"
 preserveAspectRatio="xMidYMid meet">
<g transform="translate(-45,260) scale(0.1,-0.1)"
fill="dodgerblue" stroke="none">

<path d="M1029 2123 c-15 -52 -85 -182 -147 -278 -127 -193 -157 -291 -123
-407 21 -74 68 -133 136 -171 50 -28 63 -31 140 -31 76 0 91 3 139 30 128 71
181 217 131 365 -21 63 -45 106 -132 240 -64 97 -93 154 -119 225 -16 44 -19
47 -25 27z m36 -144 c13 -24 47 -79 75 -123 122 -189 145 -241 145 -326 0
-129 -82 -240 -185 -251 -28 -3 -29 -1 -27 33 3 30 -2 41 -28 63 -17 14 -36
26 -42 26 -22 0 -79 53 -99 92 -11 22 -25 75 -29 117 -5 42 -12 87 -15 101 -5
19 8 46 53 115 32 50 71 114 87 143 15 28 31 52 35 52 3 0 17 -19 30 -42z
m-218 -352 c-8 -128 44 -227 135 -256 50 -16 65 -29 61 -53 -12 -77 -155 -18
-211 87 -28 53 -31 200 -4 259 10 20 19 37 21 37 1 0 1 -33 -2 -74z"/>

<path d="M1848 2087 c-15 -52 -85 -182 -147 -278 -127 -193 -157 -291 -123
-407 21 -74 68 -133 136 -171 50 -28 63 -31 140 -31 76 0 91 3 139 30 128 71
181 217 131 365 -21 63 -45 106 -132 240 -64 97 -93 154 -119 225 -16 44 -19
47 -25 27z m36 -144 c13 -24 47 -79 75 -123 122 -189 145 -241 145 -326 0
-129 -82 -240 -185 -251 -28 -3 -29 -1 -27 33 3 30 -2 41 -28 63 -17 14 -36
26 -42 26 -22 0 -79 53 -99 92 -11 22 -25 75 -29 117 -5 42 -12 87 -15 101 -5
19 8 46 53 115 32 50 71 114 87 143 15 28 31 52 35 52 3 0 17 -19 30 -42z
m-218 -352 c-8 -128 44 -227 135 -256 50 -16 65 -29 61 -53 -12 -77 -155 -18
-211 87 -28 53 -31 200 -4 259 10 20 19 37 21 37 1 0 1 -33 -2 -74z"/>

<path d="M1424 1192 c-15 -52 -85 -182 -147 -278 -127 -193 -157 -291 -123
-407 21 -74 68 -133 136 -171 50 -28 63 -31 140 -31 76 0 91 3 139 30 128 71
181 217 131 365 -21 63 -45 106 -132 240 -64 97 -93 154 -119 225 -16 44 -19
47 -25 27z m36 -144 c13 -24 47 -79 75 -123 122 -189 145 -241 145 -326 0
-129 -82 -240 -185 -251 -28 -3 -29 -1 -27 33 3 30 -2 41 -28 63 -17 14 -36
26 -42 26 -22 0 -79 53 -99 92 -11 22 -25 75 -29 117 -5 42 -12 87 -15 101 -5
19 8 46 53 115 32 50 71 114 87 143 15 28 31 52 35 52 3 0 17 -19 30 -42z
m-218 -352 c-8 -128 44 -227 135 -256 50 -16 65 -29 61 -53 -12 -77 -155 -18
-211 87 -28 53 -31 200 -4 259 10 20 19 37 21 37 1 0 1 -33 -2 -74z"/>

</g>
</svg>