<svg version="1.0" xmlns="http://www.w3.org/2000/svg"
 width="300pt" height="390pt" viewBox="0 0 90 80"
 preserveAspectRatio="xMidYMid meet">
<g transform="translate(-103,170) scale(0.1,-0.1)"
fill="rgb(167,105,5)" stroke="none">

<path d="M1313 1301 c-55 -35 -65 -136 -18 -181 61 -58 230 -38 279 32 18 26
21 71 6 99 -31 57 -204 90 -267 50z m206 -40 c38 -28 47 -55 27 -86 -33 -51
-137 -77 -199 -51 -66 27 -69 127 -5 157 41 20 136 9 177 -20z"/>
<path d="M1370 1190 c0 -6 31 -10 73 -10 50 0 67 3 57 10 -20 13 -130 13 -130
0z"/>
<path d="M1745 1166 c-68 -30 -97 -89 -64 -130 21 -27 26 -28 90 -24 80 4 119
31 119 80 0 31 -16 68 -34 80 -17 12 -78 8 -111 -6z m93 -28 c7 -7 12 -26 12
-43 0 -37 -29 -55 -89 -55 -73 0 -79 42 -11 88 36 24 70 28 88 10z"/>
<path d="M1109 1081 c-16 -16 -29 -40 -29 -54 0 -38 41 -90 92 -115 42 -21 50
-22 75 -10 22 10 29 21 31 50 6 68 -60 158 -115 158 -14 0 -37 -13 -54 -29z
m106 -38 c26 -28 42 -83 30 -102 -23 -38 -125 27 -125 80 0 52 55 65 95 22z"/>
<path d="M1454 1046 c-66 -29 -92 -102 -60 -165 18 -34 88 -99 122 -111 38
-15 97 -12 121 5 12 8 24 28 28 44 19 86 -85 242 -160 241 -11 -1 -34 -7 -51
-14z m117 -57 c32 -35 54 -78 64 -126 8 -39 -21 -73 -62 -73 -41 0 -101 41
-134 90 -35 53 -36 64 -3 107 21 28 31 33 65 33 33 0 47 -6 70 -31z"/>
<path d="M1500 942 c0 -8 48 -55 84 -83 18 -13 19 -13 8 7 -11 20 -77 84 -87
84 -3 0 -5 -4 -5 -8z"/>
  
</g>
</svg>