<svg version="1.0" xmlns="http://www.w3.org/2000/svg"
 width="300pt" height="390pt" viewBox="0 0 190 295"
 preserveAspectRatio="xMidYMid meet">
<g transform="translate(-53,385) scale(0.1,-0.1)" stroke="none">
<path d="M2500 3668 c-346 -33 -616 -246 -806 -635 -60 -123 -139 -350 -150
-431 -3 -29 -9 -52 -13 -52 -3 0 -14 26 -24 58 -27 86 -101 235 -161 327 -30
44 -92 117 -139 162 -208 200 -457 242 -772 131 -33 -12 -63 -24 -68 -28 -11
-10 38 -115 100 -210 107 -165 278 -308 488 -410 155 -74 385 -140 493 -140
l35 0 -7 -72 c-3 -40 -9 -118 -12 -173 -5 -90 -4 -98 10 -82 8 11 17 51 21 95
4 43 10 106 14 142 11 100 7 106 -99 178 -52 35 -86 56 -74 45 27 -23 93 -76
108 -85 6 -4 7 -10 4 -14 -9 -8 -180 24 -225 42 -18 7 -33 11 -33 9 0 -3 -35
8 -77 24 -328 123 -549 305 -678 561 -28 55 -28 68 2 83 61 32 206 60 308 60
181 1 316 -55 445 -183 112 -110 186 -230 281 -452 41 -96 78 -100 104 -10 45
151 90 284 125 364 118 270 298 477 505 578 94 45 185 72 291 83 66 7 68 3 61
-116 -14 -225 -78 -426 -189 -591 -120 -178 -321 -323 -553 -399 -80 -27 -225
-60 -231 -54 -2 2 4 12 14 23 9 10 52 58 96 107 43 48 76 87 74 87 -12 0 -208
-222 -203 -230 3 -5 0 -12 -6 -16 -8 -5 -9 -3 -4 6 5 8 4 11 -2 7 -6 -4 -7
-25 -3 -54 4 -26 11 -97 14 -157 8 -113 20 -166 36 -150 8 8 -1 204 -15 304
l-4 35 107 23 c554 121 894 535 903 1100 1 62 0 114 -2 115 -2 2 -42 -1 -89
-5z" fill="rgb(42,223,57)"/>
<path d="M1645 2610 l-120 -119 -25 23 c-14 12 -54 40 -90 61 -36 21 -75 45
-87 53 -13 8 -23 12 -23 9 0 -3 41 -31 91 -63 50 -31 102 -69 116 -83 24 -25
25 -26 36 -6 7 11 61 71 121 133 61 61 108 112 105 112 -2 0 -58 -54 -124
-120z" fill="rgb(42,223,57)"/>
<path d="M1326 2169 c21 -81 3 -153 -84 -345 -28 -61 -58 -137 -67 -170 -23
-81 -31 -277 -15 -345 31 -133 112 -239 225 -295 55 -26 69 -29 165 -29 92 0
112 3 160 26 217 102 292 350 198 659 -11 36 -46 121 -78 190 -66 142 -83 211
-69 284 5 27 7 51 5 53 -2 3 -22 -5 -43 -16 -49 -24 -105 -85 -137 -148 -26
-53 -59 -154 -51 -161 2 -3 7 1 9 9 23 71 49 137 59 149 21 26 97 90 107 90 6
0 10 -15 10 -32 1 -59 20 -121 81 -254 74 -164 98 -244 106 -361 10 -156 -33
-292 -116 -365 -108 -95 -280 -116 -409 -49 -213 110 -259 437 -106 751 40 82
94 237 94 268 0 34 15 33 52 -1 28 -25 42 -52 64 -119 31 -96 43 -110 24 -26
-29 124 -79 207 -150 247 l-42 23 8 -33z" fill="rgb(167,105,5)"/>
</g>
</svg>